# Blender v2.79 (sub 0) OBJ File: ''
# www.blender.org
mtllib part_mvap221_back_grid.mtl
o core
v 0.687500 0.000000 0.000000
v 0.687500 -0.000000 0.125000
v 0.812500 -0.000000 0.125000
v 0.812500 0.000000 0.000000
v 0.812500 -0.750000 -0.062500
v 0.812500 -0.750000 0.062500
v 0.687500 -0.750000 0.062500
v 0.687500 -0.750000 -0.062500
v -0.812500 0.000000 0.000000
v -0.812500 -0.000000 0.125000
v -0.687500 -0.000000 0.125000
v -0.687500 0.000000 0.000000
v -0.687500 -0.750000 -0.062500
v -0.687500 -0.750000 0.062500
v -0.812500 -0.750000 0.062500
v -0.812500 -0.750000 -0.062500
v -1.187500 -0.000000 0.062500
v -1.187500 -0.000000 0.062500
v -0.812500 -0.000000 0.062500
v -0.812500 -0.000000 0.062500
v -0.812500 -0.750000 -0.000000
v -0.812500 -0.750000 -0.000000
v -1.187500 -0.750000 -0.000000
v -1.187500 -0.750000 -0.000000
v -0.687500 -0.000000 0.062500
v -0.687500 -0.000000 0.062500
v 0.687500 -0.000000 0.062500
v 0.687500 -0.000000 0.062500
v 0.687500 -0.750000 -0.000000
v 0.687500 -0.750000 -0.000000
v -0.687500 -0.750000 -0.000000
v -0.687500 -0.750000 -0.000000
v 0.812500 -0.000000 0.062500
v 0.812500 -0.000000 0.062500
v 1.187500 -0.000000 0.062500
v 1.187500 -0.000000 0.062500
v 1.187500 -0.750000 -0.000000
v 1.187500 -0.750000 -0.000000
v 0.812500 -0.750000 -0.000000
v 0.812500 -0.750000 -0.000000
vt 1.583984 0.572266
vt 1.587891 0.572266
vt 1.587891 0.576172
vt 1.583984 0.576172
vt 1.587891 0.572266
vt 1.591797 0.572266
vt 1.591797 0.576172
vt 1.587891 0.576172
vt 1.583984 0.548828
vt 1.587891 0.548828
vt 1.595703 0.572266
vt 1.591797 0.572266
vt 1.591797 0.548828
vt 1.595703 0.548828
vt 1.580078 0.572266
vt 1.580078 0.548828
vt 1.771484 0.572266
vt 1.775391 0.572266
vt 1.775391 0.576172
vt 1.771484 0.576172
vt 1.775391 0.572266
vt 1.779297 0.572266
vt 1.779297 0.576172
vt 1.775391 0.576172
vt 1.771484 0.548828
vt 1.775391 0.548828
vt 1.783203 0.572266
vt 1.779297 0.572266
vt 1.779297 0.548828
vt 1.783203 0.548828
vt 1.767578 0.572266
vt 1.767578 0.548828
vt 1.044922 0.564453
vt 1.044922 0.564453
vt 1.044922 0.576172
vt 1.044922 0.576172
vt 1.044922 0.564453
vt 1.044922 0.564453
vt 1.044922 0.576172
vt 1.044922 0.576172
vt 1.044922 0.541016
vt 1.044922 0.541016
vt 1.056641 0.564453
vt 1.056641 0.564453
vt 1.056641 0.541016
vt 1.056641 0.541016
vt 1.033203 0.564453
vt 1.033203 0.541016
vt 1.607422 0.470703
vt 1.607422 0.470703
vt 1.607422 0.513672
vt 1.607422 0.513672
vt 1.607422 0.470703
vt 1.607422 0.470703
vt 1.607422 0.513672
vt 1.607422 0.513672
vt 1.607422 0.447266
vt 1.607422 0.447266
vt 1.650391 0.470703
vt 1.650391 0.470703
vt 1.650391 0.447266
vt 1.650391 0.447266
vt 1.564453 0.470703
vt 1.564453 0.447266
vt 1.419922 0.564453
vt 1.419922 0.564453
vt 1.419922 0.576172
vt 1.419922 0.576172
vt 1.419922 0.564453
vt 1.419922 0.564453
vt 1.419922 0.576172
vt 1.419922 0.576172
vt 1.419922 0.541016
vt 1.419922 0.541016
vt 1.431641 0.564453
vt 1.431641 0.564453
vt 1.431641 0.541016
vt 1.431641 0.541016
vt 1.408203 0.564453
vt 1.408203 0.541016
vn 0.0000 1.0000 0.0000
vn 0.0000 -1.0000 0.0000
vn -1.0000 0.0000 0.0000
vn 1.0000 0.0000 0.0000
vn 0.0000 -0.0830 0.9965
vn 0.0000 0.0830 -0.9965
vn 0.0000 0.0000 1.0000
usemtl ModelMaterial.001
s 1
f 1/1/1 2/2/1 3/3/1 4/4/1
f 5/5/2 6/6/2 7/7/2 8/8/2
f 2/2/3 1/1/3 8/9/3 7/10/3
f 4/11/4 3/12/4 6/13/4 5/14/4
f 3/12/5 2/2/5 7/10/5 6/13/5
f 1/1/6 4/15/6 5/16/6 8/9/6
f 9/17/1 10/18/1 11/19/1 12/20/1
f 13/21/2 14/22/2 15/23/2 16/24/2
f 10/18/3 9/17/3 16/25/3 15/26/3
f 12/27/4 11/28/4 14/29/4 13/30/4
f 11/28/5 10/18/5 15/26/5 14/29/5
f 9/17/6 12/31/6 13/32/6 16/25/6
f 17/33/7 18/34/7 19/35/7 20/36/7
f 21/37/7 22/38/7 23/39/7 24/40/7
f 18/34/7 17/33/7 24/41/7 23/42/7
f 20/43/7 19/44/7 22/45/7 21/46/7
f 19/44/5 18/34/5 23/42/5 22/45/5
f 17/33/6 20/47/6 21/48/6 24/41/6
f 25/49/7 26/50/7 27/51/7 28/52/7
f 29/53/7 30/54/7 31/55/7 32/56/7
f 26/50/7 25/49/7 32/57/7 31/58/7
f 28/59/7 27/60/7 30/61/7 29/62/7
f 27/60/5 26/50/5 31/58/5 30/61/5
f 25/49/6 28/63/6 29/64/6 32/57/6
f 33/65/7 34/66/7 35/67/7 36/68/7
f 37/69/7 38/70/7 39/71/7 40/72/7
f 34/66/7 33/65/7 40/73/7 39/74/7
f 36/75/7 35/76/7 38/77/7 37/78/7
f 35/76/5 34/66/5 39/74/5 38/77/5
f 33/65/6 36/79/6 37/80/6 40/73/6
