# Blender v2.79 (sub 0) OBJ File: ''
# www.blender.org
mtllib part_uvtg165_module_body_extendedbed.mtl
o part_uvtg165_module_body_extendedbed
v -1.250000 -0.062500 -0.750000
v -1.250000 -0.062500 0.625000
v -1.125000 -0.062500 0.625000
v -1.125000 -0.062500 -0.750000
v -1.125000 -0.156250 -0.750000
v -1.125000 -0.156250 0.625000
v -1.187500 -0.187500 0.625000
v -1.187500 -0.187500 -0.750000
v 1.125000 -0.062500 -0.750000
v 1.125000 -0.062500 0.625000
v 1.250000 -0.062500 0.625000
v 1.250000 -0.062500 -0.750000
v 1.187500 -0.187500 -0.750000
v 1.187500 -0.187500 0.625000
v 1.125000 -0.156250 0.625000
v 1.125000 -0.156250 -0.750000
v 1.125000 0.000000 -0.750000
v 1.125000 0.000000 0.625000
v 1.250000 0.000000 0.625000
v 1.250000 0.000000 -0.750000
v 1.250000 -0.062500 -0.750000
v 1.250000 -0.062500 0.625000
v 1.125000 -0.062500 0.625000
v 1.125000 -0.062500 -0.750000
v -1.250000 -0.000000 -0.750000
v -1.250000 -0.000000 0.625000
v -1.125000 -0.000000 0.625000
v -1.125000 -0.000000 -0.750000
v -1.125000 -0.062500 -0.750000
v -1.125000 -0.062500 0.625000
v -1.250000 -0.062500 0.625000
v -1.250000 -0.062500 -0.750000
v -1.125000 -0.062500 -0.750000
v -1.125000 -0.062500 0.625000
v -0.125000 -0.062500 0.625000
v -0.125000 -0.062500 -0.750000
v -0.187500 -0.125000 -0.687500
v -0.187500 -0.125000 0.687500
v -1.125000 -0.125000 0.687500
v -1.125000 -0.125000 -0.687500
v -0.125000 0.062500 -0.750000
v -0.125000 0.062500 0.625000
v 0.125000 0.062500 0.625000
v 0.125000 0.062500 -0.750000
v 0.125000 -0.062500 -0.750000
v 0.125000 -0.062500 0.625000
v -0.125000 -0.062500 0.625000
v -0.125000 -0.062500 -0.750000
v 0.125000 -0.062500 -0.750000
v 0.125000 -0.062500 0.625000
v 1.125000 -0.062500 0.625000
v 1.125000 -0.062500 -0.750000
v 1.125000 -0.125000 -0.687500
v 1.125000 -0.125000 0.687500
v 0.187500 -0.125000 0.687500
v 0.187500 -0.125000 -0.687500
v -1.187500 0.875000 -0.937500
v -1.187500 0.875000 0.437500
v -1.125000 0.875000 0.437500
v -1.125000 0.875000 -0.937500
v -1.125000 0.812500 -0.875000
v -1.125000 0.812500 0.500000
v -1.187500 0.812500 0.500000
v -1.187500 0.812500 -0.875000
v 1.125000 0.875000 -0.937500
v 1.125000 0.875000 0.437500
v 1.187500 0.875000 0.437500
v 1.187500 0.875000 -0.937500
v 1.187500 0.812500 -0.875000
v 1.187500 0.812500 0.500000
v 1.125000 0.812500 0.500000
v 1.125000 0.812500 -0.875000
v -1.187500 0.812500 0.437500
v -1.187500 0.812500 0.500000
v -1.125000 0.812500 0.500000
v -1.125000 0.812500 0.437500
v -1.125000 0.750000 0.437500
v -1.125000 0.750000 0.500000
v -1.187500 0.750000 0.500000
v -1.187500 0.750000 0.437500
v 1.125000 0.812500 0.437500
v 1.125000 0.812500 0.500000
v 1.187500 0.812500 0.500000
v 1.187500 0.812500 0.437500
v 1.187500 0.750000 0.437500
v 1.187500 0.750000 0.500000
v 1.125000 0.750000 0.500000
v 1.125000 0.750000 0.437500
v -1.187500 0.750000 -0.750000
v -1.187500 0.750000 0.625000
v -1.125000 0.750000 0.625000
v -1.125000 0.750000 -0.750000
v -1.125000 0.687500 -0.750000
v -1.125000 0.687500 0.625000
v -1.250000 0.687500 0.625000
v -1.250000 0.687500 -0.750000
v -1.250000 0.687500 -0.750000
v -1.250000 0.687500 0.625000
v -1.125000 0.687500 0.625000
v -1.125000 0.687500 -0.750000
v -1.125000 -0.000000 -0.750000
v -1.125000 -0.000000 0.625000
v -1.250000 -0.000000 0.625000
v -1.250000 -0.000000 -0.750000
v 1.125000 0.750000 -0.750000
v 1.125000 0.750000 0.625000
v 1.187500 0.750000 0.625000
v 1.187500 0.750000 -0.750000
v 1.250000 0.687500 -0.750000
v 1.250000 0.687500 0.625000
v 1.125000 0.687500 0.625000
v 1.125000 0.687500 -0.750000
v 1.125000 0.687500 -0.750000
v 1.125000 0.687500 0.625000
v 1.250000 0.687500 0.625000
v 1.250000 0.687500 -0.750000
v 1.250000 0.000000 -0.750000
v 1.250000 0.000000 0.625000
v 1.125000 0.000000 0.625000
v 1.125000 0.000000 -0.750000
vt 1.880859 0.697266
vt 1.923828 0.697266
vt 1.923828 0.701172
vt 1.880859 0.701172
vt 1.923828 0.697266
vt 1.966797 0.697266
vt 1.966797 0.701172
vt 1.923828 0.701172
vt 1.880859 0.693359
vt 1.923828 0.693359
vt 1.970703 0.697266
vt 1.927734 0.697266
vt 1.927734 0.693359
vt 1.970703 0.693359
vt 1.876953 0.697266
vt 1.876953 0.693359
vt 1.552734 0.759766
vt 1.595703 0.759766
vt 1.595703 0.763672
vt 1.552734 0.763672
vt 1.595703 0.759766
vt 1.638672 0.759766
vt 1.638672 0.763672
vt 1.595703 0.763672
vt 1.552734 0.755859
vt 1.595703 0.755859
vt 1.642578 0.759766
vt 1.599609 0.759766
vt 1.599609 0.755859
vt 1.642578 0.755859
vt 1.548828 0.759766
vt 1.548828 0.755859
vt 1.396484 0.447266
vt 1.439453 0.447266
vt 1.439453 0.451172
vt 1.396484 0.451172
vt 1.439453 0.447266
vt 1.482422 0.447266
vt 1.482422 0.451172
vt 1.439453 0.451172
vt 1.396484 0.445312
vt 1.439453 0.445312
vt 1.486328 0.447266
vt 1.443359 0.447266
vt 1.443359 0.445312
vt 1.486328 0.445312
vt 1.392578 0.447266
vt 1.392578 0.445312
vt 1.287109 0.447266
vt 1.330078 0.447266
vt 1.330078 0.451172
vt 1.287109 0.451172
vt 1.330078 0.447266
vt 1.373047 0.447266
vt 1.373047 0.451172
vt 1.330078 0.451172
vt 1.287109 0.445312
vt 1.330078 0.445312
vt 1.376953 0.447266
vt 1.333984 0.447266
vt 1.333984 0.445312
vt 1.376953 0.445312
vt 1.283203 0.447266
vt 1.283203 0.445312
vt 1.111328 0.419922
vt 1.154297 0.419922
vt 1.154297 0.451172
vt 1.111328 0.451172
vt 1.154297 0.419922
vt 1.197266 0.419922
vt 1.197266 0.451172
vt 1.154297 0.451172
vt 1.111328 0.417969
vt 1.154297 0.417969
vt 1.228516 0.419922
vt 1.185547 0.419922
vt 1.185547 0.417969
vt 1.228516 0.417969
vt 1.080078 0.419922
vt 1.080078 0.417969
vt 1.009766 0.443359
vt 1.052734 0.443359
vt 1.052734 0.451172
vt 1.009766 0.451172
vt 1.052734 0.443359
vt 1.095703 0.443359
vt 1.095703 0.451172
vt 1.052734 0.451172
vt 1.009766 0.439453
vt 1.052734 0.439453
vt 1.103516 0.443359
vt 1.060547 0.443359
vt 1.060547 0.439453
vt 1.103516 0.439453
vt 1.001953 0.443359
vt 1.001953 0.439453
vt 1.798828 0.435547
vt 1.841797 0.435547
vt 1.841797 0.466797
vt 1.798828 0.466797
vt 1.841797 0.435547
vt 1.884766 0.435547
vt 1.884766 0.466797
vt 1.841797 0.466797
vt 1.798828 0.433594
vt 1.841797 0.433594
vt 1.916016 0.435547
vt 1.873047 0.435547
vt 1.873047 0.433594
vt 1.916016 0.433594
vt 1.767578 0.435547
vt 1.767578 0.433594
vt 1.410156 0.527344
vt 1.451172 0.527344
vt 1.451172 0.529297
vt 1.410156 0.529297
vt 1.451172 0.527344
vt 1.492188 0.527344
vt 1.492188 0.529297
vt 1.451172 0.529297
vt 1.410156 0.525391
vt 1.451172 0.525391
vt 1.494141 0.527344
vt 1.453125 0.527344
vt 1.453125 0.525391
vt 1.494141 0.525391
vt 1.408203 0.527344
vt 1.408203 0.525391
vt 1.800781 0.558594
vt 1.841797 0.558594
vt 1.841797 0.560547
vt 1.800781 0.560547
vt 1.841797 0.558594
vt 1.882812 0.558594
vt 1.882812 0.560547
vt 1.841797 0.560547
vt 1.800781 0.556641
vt 1.841797 0.556641
vt 1.884766 0.558594
vt 1.843750 0.558594
vt 1.843750 0.556641
vt 1.884766 0.556641
vt 1.798828 0.558594
vt 1.798828 0.556641
vt 1.003906 0.621094
vt 1.005859 0.621094
vt 1.005859 0.623047
vt 1.003906 0.623047
vt 1.005859 0.621094
vt 1.007812 0.621094
vt 1.007812 0.623047
vt 1.005859 0.623047
vt 1.003906 0.619141
vt 1.005859 0.619141
vt 1.009766 0.621094
vt 1.007812 0.621094
vt 1.007812 0.619141
vt 1.009766 0.619141
vt 1.001953 0.621094
vt 1.001953 0.619141
vt 1.707031 0.636719
vt 1.708984 0.636719
vt 1.708984 0.638672
vt 1.707031 0.638672
vt 1.708984 0.636719
vt 1.710938 0.636719
vt 1.710938 0.638672
vt 1.708984 0.638672
vt 1.707031 0.634766
vt 1.708984 0.634766
vt 1.712891 0.636719
vt 1.710938 0.636719
vt 1.710938 0.634766
vt 1.712891 0.634766
vt 1.705078 0.636719
vt 1.705078 0.634766
vt 1.662109 0.509766
vt 1.705078 0.509766
vt 1.705078 0.513672
vt 1.662109 0.513672
vt 1.705078 0.509766
vt 1.748047 0.509766
vt 1.748047 0.513672
vt 1.705078 0.513672
vt 1.662109 0.507812
vt 1.705078 0.507812
vt 1.751953 0.509766
vt 1.708984 0.509766
vt 1.708984 0.507812
vt 1.751953 0.507812
vt 1.658203 0.509766
vt 1.658203 0.507812
vt 1.146484 0.525391
vt 1.189453 0.525391
vt 1.189453 0.529297
vt 1.146484 0.529297
vt 1.189453 0.525391
vt 1.232422 0.525391
vt 1.232422 0.529297
vt 1.189453 0.529297
vt 1.146484 0.503906
vt 1.189453 0.503906
vt 1.236328 0.525391
vt 1.193359 0.525391
vt 1.193359 0.503906
vt 1.236328 0.503906
vt 1.142578 0.525391
vt 1.142578 0.503906
vt 1.412109 0.541016
vt 1.455078 0.541016
vt 1.455078 0.544922
vt 1.412109 0.544922
vt 1.455078 0.541016
vt 1.498047 0.541016
vt 1.498047 0.544922
vt 1.455078 0.544922
vt 1.412109 0.539062
vt 1.455078 0.539062
vt 1.501953 0.541016
vt 1.458984 0.541016
vt 1.458984 0.539062
vt 1.501953 0.539062
vt 1.408203 0.541016
vt 1.408203 0.539062
vt 1.880859 0.541016
vt 1.923828 0.541016
vt 1.923828 0.544922
vt 1.880859 0.544922
vt 1.923828 0.541016
vt 1.966797 0.541016
vt 1.966797 0.544922
vt 1.923828 0.544922
vt 1.880859 0.519531
vt 1.923828 0.519531
vt 1.970703 0.541016
vt 1.927734 0.541016
vt 1.927734 0.519531
vt 1.970703 0.519531
vt 1.876953 0.541016
vt 1.876953 0.519531
vn -0.0000 1.0000 0.0000
vn 0.4472 -0.8944 0.0000
vn -0.8944 -0.4472 -0.0000
vn 1.0000 0.0000 0.0000
vn -0.0000 0.0000 1.0000
vn 0.0000 0.0000 -1.0000
vn -0.4472 -0.8944 -0.0000
vn -1.0000 0.0000 0.0000
vn 0.8944 -0.4472 0.0000
vn 0.0000 -1.0000 0.0000
vn 0.7071 -0.7071 0.0000
vn -0.0000 0.7071 0.7071
vn 0.0000 -0.7071 -0.7071
vn -0.7071 -0.7071 -0.0000
vn -0.7071 0.7071 0.0000
vn 0.7071 0.7071 0.0000
usemtl ModelMaterial.001
s off
f 1/1/1 2/2/1 3/3/1 4/4/1
f 5/5/2 6/6/2 7/7/2 8/8/2
f 2/2/3 1/1/3 8/9/3 7/10/3
f 4/11/4 3/12/4 6/13/4 5/14/4
f 3/12/5 2/2/5 7/10/5 6/13/5
f 1/1/6 4/15/6 5/16/6 8/9/6
f 9/17/1 10/18/1 11/19/1 12/20/1
f 13/21/7 14/22/7 15/23/7 16/24/7
f 10/18/8 9/17/8 16/25/8 15/26/8
f 12/27/9 11/28/9 14/29/9 13/30/9
f 11/28/5 10/18/5 15/26/5 14/29/5
f 9/17/6 12/31/6 13/32/6 16/25/6
f 17/33/1 18/34/1 19/35/1 20/36/1
f 21/37/10 22/38/10 23/39/10 24/40/10
f 18/34/8 17/33/8 24/41/8 23/42/8
f 20/43/4 19/44/4 22/45/4 21/46/4
f 19/44/5 18/34/5 23/42/5 22/45/5
f 17/33/6 20/47/6 21/48/6 24/41/6
f 25/49/1 26/50/1 27/51/1 28/52/1
f 29/53/10 30/54/10 31/55/10 32/56/10
f 26/50/8 25/49/8 32/57/8 31/58/8
f 28/59/4 27/60/4 30/61/4 29/62/4
f 27/60/5 26/50/5 31/58/5 30/61/5
f 25/49/6 28/63/6 29/64/6 32/57/6
f 33/65/1 34/66/1 35/67/1 36/68/1
f 37/69/10 38/70/10 39/71/10 40/72/10
f 34/66/8 33/65/8 40/73/8 39/74/8
f 36/75/11 35/76/11 38/77/11 37/78/11
f 35/76/12 34/66/12 39/74/12 38/77/12
f 33/65/13 36/79/13 37/80/13 40/73/13
f 41/81/1 42/82/1 43/83/1 44/84/1
f 45/85/10 46/86/10 47/87/10 48/88/10
f 42/82/8 41/81/8 48/89/8 47/90/8
f 44/91/4 43/92/4 46/93/4 45/94/4
f 43/92/5 42/82/5 47/90/5 46/93/5
f 41/81/6 44/95/6 45/96/6 48/89/6
f 49/97/1 50/98/1 51/99/1 52/100/1
f 53/101/10 54/102/10 55/103/10 56/104/10
f 50/98/14 49/97/14 56/105/14 55/106/14
f 52/107/4 51/108/4 54/109/4 53/110/4
f 51/108/12 50/98/12 55/106/12 54/109/12
f 49/97/13 52/111/13 53/112/13 56/105/13
f 57/113/1 58/114/1 59/115/1 60/116/1
f 61/117/10 62/118/10 63/119/10 64/120/10
f 58/114/8 57/113/8 64/121/8 63/122/8
f 60/123/4 59/124/4 62/125/4 61/126/4
f 59/124/12 58/114/12 63/122/12 62/125/12
f 57/113/13 60/127/13 61/128/13 64/121/13
f 65/129/1 66/130/1 67/131/1 68/132/1
f 69/133/10 70/134/10 71/135/10 72/136/10
f 66/130/8 65/129/8 72/137/8 71/138/8
f 68/139/4 67/140/4 70/141/4 69/142/4
f 67/140/12 66/130/12 71/138/12 70/141/12
f 65/129/13 68/143/13 69/144/13 72/137/13
f 73/145/1 74/146/1 75/147/1 76/148/1
f 77/149/10 78/150/10 79/151/10 80/152/10
f 74/146/8 73/145/8 80/153/8 79/154/8
f 76/155/4 75/156/4 78/157/4 77/158/4
f 75/156/5 74/146/5 79/154/5 78/157/5
f 73/145/6 76/159/6 77/160/6 80/153/6
f 81/161/1 82/162/1 83/163/1 84/164/1
f 85/165/10 86/166/10 87/167/10 88/168/10
f 82/162/8 81/161/8 88/169/8 87/170/8
f 84/171/4 83/172/4 86/173/4 85/174/4
f 83/172/5 82/162/5 87/170/5 86/173/5
f 81/161/6 84/175/6 85/176/6 88/169/6
f 89/177/1 90/178/1 91/179/1 92/180/1
f 93/181/10 94/182/10 95/183/10 96/184/10
f 90/178/15 89/177/15 96/185/15 95/186/15
f 92/187/4 91/188/4 94/189/4 93/190/4
f 91/188/5 90/178/5 95/186/5 94/189/5
f 89/177/6 92/191/6 93/192/6 96/185/6
f 97/193/1 98/194/1 99/195/1 100/196/1
f 101/197/10 102/198/10 103/199/10 104/200/10
f 98/194/8 97/193/8 104/201/8 103/202/8
f 100/203/4 99/204/4 102/205/4 101/206/4
f 99/204/5 98/194/5 103/202/5 102/205/5
f 97/193/6 100/207/6 101/208/6 104/201/6
f 105/209/1 106/210/1 107/211/1 108/212/1
f 109/213/10 110/214/10 111/215/10 112/216/10
f 106/210/8 105/209/8 112/217/8 111/218/8
f 108/219/16 107/220/16 110/221/16 109/222/16
f 107/220/5 106/210/5 111/218/5 110/221/5
f 105/209/6 108/223/6 109/224/6 112/217/6
f 113/225/1 114/226/1 115/227/1 116/228/1
f 117/229/10 118/230/10 119/231/10 120/232/10
f 114/226/8 113/225/8 120/233/8 119/234/8
f 116/235/4 115/236/4 118/237/4 117/238/4
f 115/236/5 114/226/5 119/234/5 118/237/5
f 113/225/6 116/239/6 117/240/6 120/233/6
