# Blender v2.79 (sub 0) OBJ File: ''
# www.blender.org
mtllib part_mvap221_back_window.mtl
o door_tailgate
v -0.875000 -0.375570 -1.452222
v -0.875000 0.000000 0.000000
v -0.625000 0.000000 0.000000
v -0.625000 -0.375570 -1.452222
v -0.625000 -0.436079 -1.436573
v -0.625000 -0.060509 0.015649
v -0.875000 -0.060509 0.015649
v -0.875000 -0.436079 -1.436573
v 0.625000 -0.375570 -1.452222
v 0.625000 0.000000 0.000000
v 0.875000 0.000000 0.000000
v 0.875000 -0.375570 -1.452222
v 0.875000 -0.436079 -1.436573
v 0.875000 -0.060509 0.015649
v 0.625000 -0.060509 0.015649
v 0.625000 -0.436079 -1.436573
v -0.625000 -0.375570 -1.452222
v -0.625000 -0.328624 -1.270694
v 0.625000 -0.328624 -1.270694
v 0.625000 -0.375570 -1.452222
v 0.625000 -0.436079 -1.436573
v 0.625000 -0.389133 -1.255045
v -0.625000 -0.389133 -1.255045
v -0.625000 -0.436079 -1.436573
v -0.625000 -0.156488 -0.605092
v -0.625000 0.000000 0.000000
v 0.625000 0.000000 0.000000
v 0.625000 -0.156487 -0.605092
v 0.625000 -0.216997 -0.589444
v 0.625000 -0.060509 0.015649
v -0.625000 -0.060509 0.015649
v -0.625000 -0.216997 -0.589444
v -0.875000 -0.501544 -1.564894
v -0.875000 -0.375570 -1.452222
v 0.875000 -0.375570 -1.452222
v 0.875000 -0.501543 -1.564894
v 0.875000 -0.535710 -1.572197
v 0.875000 -0.436079 -1.436573
v -0.875000 -0.436079 -1.436573
v -0.875000 -0.535710 -1.572197
v -0.875000 -0.562500 -1.625000
v -0.875000 -0.500000 -1.562500
v 0.875000 -0.500000 -1.562500
v 0.875000 -0.562500 -1.625000
v 0.875000 -0.625000 -1.625000
v 0.875000 -0.625000 -1.562500
v -0.875000 -0.625000 -1.562500
v -0.875000 -0.625000 -1.625000
v -0.875000 -0.812500 -1.625000
v -0.875000 -0.812500 -1.562500
v 0.875000 -0.812500 -1.562500
v 0.875000 -0.812500 -1.625000
v 0.875000 -0.875000 -1.625000
v 0.875000 -0.875000 -1.562500
v -0.875000 -0.875000 -1.562500
v -0.875000 -0.875000 -1.625000
v -0.875000 -0.625000 -1.625000
v -0.875000 -0.625000 -1.562500
v -0.625000 -0.625000 -1.562500
v -0.625000 -0.625000 -1.625000
v -0.625000 -0.812500 -1.625000
v -0.625000 -0.812500 -1.562500
v -0.875000 -0.812500 -1.562500
v -0.875000 -0.812500 -1.625000
v 0.625000 -0.625000 -1.625000
v 0.625000 -0.625000 -1.562500
v 0.875000 -0.625000 -1.562500
v 0.875000 -0.625000 -1.625000
v 0.875000 -0.812500 -1.625000
v 0.875000 -0.812500 -1.562500
v 0.625000 -0.812500 -1.562500
v 0.625000 -0.812500 -1.625000
v 0.625000 -0.625000 -1.593750
v 0.625000 -0.812500 -1.593750
v -0.625000 -0.812500 -1.593750
v -0.625000 -0.625000 -1.593750
vt 1.650391 0.568359
vt 1.697266 0.568359
vt 1.697266 0.576172
vt 1.650391 0.576172
vt 1.697266 0.568359
vt 1.744141 0.568359
vt 1.744141 0.576172
vt 1.697266 0.576172
vt 1.650391 0.566406
vt 1.697266 0.566406
vt 1.751953 0.568359
vt 1.705078 0.568359
vt 1.705078 0.566406
vt 1.751953 0.566406
vt 1.642578 0.568359
vt 1.642578 0.566406
vt 1.822266 0.568359
vt 1.869141 0.568359
vt 1.869141 0.576172
vt 1.822266 0.576172
vt 1.869141 0.568359
vt 1.916016 0.568359
vt 1.916016 0.576172
vt 1.869141 0.576172
vt 1.822266 0.566406
vt 1.869141 0.566406
vt 1.923828 0.568359
vt 1.876953 0.568359
vt 1.876953 0.566406
vt 1.923828 0.566406
vt 1.814453 0.568359
vt 1.814453 0.566406
vt 1.931641 0.537109
vt 1.937500 0.537109
vt 1.937500 0.576172
vt 1.931641 0.576172
vt 1.937500 0.537109
vt 1.943359 0.537109
vt 1.943359 0.576172
vt 1.937500 0.576172
vt 1.931641 0.535156
vt 1.937500 0.535156
vt 1.982422 0.537109
vt 1.976562 0.537109
vt 1.976562 0.535156
vt 1.982422 0.535156
vt 1.892578 0.537109
vt 1.892578 0.535156
vt 1.275391 0.521484
vt 1.294922 0.521484
vt 1.294922 0.560547
vt 1.275391 0.560547
vt 1.294922 0.521484
vt 1.314453 0.521484
vt 1.314453 0.560547
vt 1.294922 0.560547
vt 1.275391 0.519531
vt 1.294922 0.519531
vt 1.353516 0.521484
vt 1.333984 0.521484
vt 1.333984 0.519531
vt 1.353516 0.519531
vt 1.236328 0.521484
vt 1.236328 0.519531
vt 1.369141 0.505859
vt 1.373047 0.505859
vt 1.373047 0.560547
vt 1.369141 0.560547
vt 1.373047 0.505859
vt 1.376953 0.505859
vt 1.376953 0.560547
vt 1.373047 0.560547
vt 1.369141 0.503906
vt 1.373047 0.503906
vt 1.431641 0.505859
vt 1.427734 0.505859
vt 1.427734 0.503906
vt 1.431641 0.503906
vt 1.314453 0.505859
vt 1.314453 0.503906
vt 1.494141 0.505859
vt 1.496094 0.505859
vt 1.496094 0.560547
vt 1.494141 0.560547
vt 1.496094 0.505859
vt 1.498047 0.505859
vt 1.498047 0.560547
vt 1.496094 0.560547
vt 1.494141 0.503906
vt 1.496094 0.503906
vt 1.552734 0.505859
vt 1.550781 0.505859
vt 1.550781 0.503906
vt 1.552734 0.503906
vt 1.439453 0.505859
vt 1.439453 0.503906
vt 1.712891 0.505859
vt 1.714844 0.505859
vt 1.714844 0.560547
vt 1.712891 0.560547
vt 1.714844 0.505859
vt 1.716797 0.505859
vt 1.716797 0.560547
vt 1.714844 0.560547
vt 1.712891 0.503906
vt 1.714844 0.503906
vt 1.771484 0.505859
vt 1.769531 0.505859
vt 1.769531 0.503906
vt 1.771484 0.503906
vt 1.658203 0.505859
vt 1.658203 0.503906
vt 1.259766 0.880859
vt 1.261719 0.880859
vt 1.261719 0.888672
vt 1.259766 0.888672
vt 1.261719 0.880859
vt 1.263672 0.880859
vt 1.263672 0.888672
vt 1.261719 0.888672
vt 1.259766 0.875000
vt 1.261719 0.875000
vt 1.271484 0.880859
vt 1.269531 0.880859
vt 1.269531 0.875000
vt 1.271484 0.875000
vt 1.251953 0.880859
vt 1.251953 0.875000
vt 1.431641 0.880859
vt 1.433594 0.880859
vt 1.433594 0.888672
vt 1.431641 0.888672
vt 1.433594 0.880859
vt 1.435547 0.880859
vt 1.435547 0.888672
vt 1.433594 0.888672
vt 1.431641 0.875000
vt 1.433594 0.875000
vt 1.443359 0.880859
vt 1.441406 0.880859
vt 1.441406 0.875000
vt 1.443359 0.875000
vt 1.423828 0.880859
vt 1.423828 0.875000
vn 0.0000 0.9681 -0.2504
vn 0.0000 -0.9681 0.2504
vn -1.0000 0.0000 0.0000
vn 1.0000 0.0000 0.0000
vn 0.0000 0.2504 0.9681
vn 0.0000 -0.2504 -0.9681
vn 0.0000 -0.2504 -0.9682
vn -0.0000 0.6667 -0.7454
vn 0.0000 -0.8059 0.5920
vn -0.0000 0.2090 -0.9779
vn 0.0000 0.7071 -0.7071
vn 0.0000 -1.0000 0.0000
vn 0.0000 0.0000 1.0000
vn 0.0000 0.0000 -1.0000
vn 0.0000 1.0000 0.0000
usemtl ModelMaterial.002
s 1
f 1/1/1 2/2/1 3/3/1 4/4/1
f 5/5/2 6/6/2 7/7/2 8/8/2
f 2/2/3 1/1/3 8/9/3 7/10/3
f 4/11/4 3/12/4 6/13/4 5/14/4
f 3/12/5 2/2/5 7/10/5 6/13/5
f 1/1/6 4/15/6 5/16/6 8/9/6
f 9/17/1 10/18/1 11/19/1 12/20/1
f 13/21/2 14/22/2 15/23/2 16/24/2
f 10/18/3 9/17/3 16/25/3 15/26/3
f 12/27/4 11/28/4 14/29/4 13/30/4
f 11/28/5 10/18/5 15/26/5 14/29/5
f 9/17/6 12/31/6 13/32/6 16/25/6
f 17/33/1 18/34/1 19/35/1 20/36/1
f 21/37/2 22/38/2 23/39/2 24/40/2
f 18/34/3 17/33/3 24/41/3 23/42/3
f 20/43/4 19/44/4 22/45/4 21/46/4
f 19/44/5 18/34/5 23/42/5 22/45/5
f 17/33/6 20/47/6 21/48/6 24/41/6
f 25/49/1 26/50/1 27/51/1 28/52/1
f 29/53/2 30/54/2 31/55/2 32/56/2
f 26/50/3 25/49/3 32/57/3 31/58/3
f 28/59/4 27/60/4 30/61/4 29/62/4
f 27/60/5 26/50/5 31/58/5 30/61/5
f 25/49/7 28/63/7 29/64/7 32/57/7
f 33/65/8 34/66/8 35/67/8 36/68/8
f 37/69/9 38/70/9 39/71/9 40/72/9
f 34/66/3 33/65/3 40/73/3 39/74/3
f 36/75/4 35/76/4 38/77/4 37/78/4
f 35/76/5 34/66/5 39/74/5 38/77/5
f 33/65/10 36/79/10 37/80/10 40/73/10
f 41/81/11 42/82/11 43/83/11 44/84/11
f 45/85/12 46/86/12 47/87/12 48/88/12
f 42/82/3 41/81/3 48/89/3 47/90/3
f 44/91/4 43/92/4 46/93/4 45/94/4
f 43/92/13 42/82/13 47/90/13 46/93/13
f 41/81/14 44/95/14 45/96/14 48/89/14
f 49/97/15 50/98/15 51/99/15 52/100/15
f 53/101/12 54/102/12 55/103/12 56/104/12
f 50/98/3 49/97/3 56/105/3 55/106/3
f 52/107/4 51/108/4 54/109/4 53/110/4
f 51/108/13 50/98/13 55/106/13 54/109/13
f 49/97/14 52/111/14 53/112/14 56/105/14
f 57/113/15 58/114/15 59/115/15 60/116/15
f 61/117/12 62/118/12 63/119/12 64/120/12
f 58/114/3 57/113/3 64/121/3 63/122/3
f 60/123/4 59/124/4 62/125/4 61/126/4
f 59/124/13 58/114/13 63/122/13 62/125/13
f 57/113/14 60/127/14 61/128/14 64/121/14
f 65/129/15 66/130/15 67/131/15 68/132/15
f 69/133/12 70/134/12 71/135/12 72/136/12
f 66/130/3 65/129/3 72/137/3 71/138/3
f 68/139/4 67/140/4 70/141/4 69/142/4
f 67/140/13 66/130/13 71/138/13 70/141/13
f 65/129/14 68/143/14 69/144/14 72/137/14
o core
v 0.875000 -0.562500 -1.625000
v 0.875000 -0.500000 -1.562500
v 1.312500 -0.500000 -1.562500
v 1.250000 -0.562500 -1.625000
v 1.250000 -0.875000 -1.625000
v 1.312500 -0.875000 -1.562500
v 0.875000 -0.875000 -1.562500
v 0.875000 -0.875000 -1.625000
v 1.187500 -0.500000 -1.562500
v 1.187500 -0.125000 -0.000000
v 1.312500 -0.125000 -0.000000
v 1.312500 -0.500000 -1.562500
v 1.312500 -0.875000 -1.562500
v 1.312500 -0.875000 -0.062500
v 1.187500 -0.875000 -0.062500
v 1.187500 -0.875000 -1.562500
v 0.875000 -0.375000 -1.437500
v 0.875000 0.000000 0.000000
v 1.250000 0.000000 0.000000
v 1.250000 -0.375000 -1.437500
v 1.312500 -0.500000 -1.562500
v 1.312500 -0.125000 -0.000000
v 0.875000 -0.125000 -0.000000
v 0.875000 -0.500000 -1.562500
v 0.875000 -0.500000 -1.562500
v 0.875000 -0.468750 -1.437500
v 1.187500 -0.468750 -1.437500
v 1.187500 -0.500000 -1.562500
v 1.187500 -0.875000 -1.562500
v 1.187500 -0.875000 -1.500000
v 0.875000 -0.875000 -1.500000
v 0.875000 -0.875000 -1.562500
v -1.250000 -0.562500 -1.625000
v -1.312500 -0.500000 -1.562500
v -0.875000 -0.500000 -1.562500
v -0.875000 -0.562500 -1.625000
v -0.875000 -0.875000 -1.625000
v -0.875000 -0.875000 -1.562500
v -1.312500 -0.875000 -1.562500
v -1.250000 -0.875000 -1.625000
v -1.187500 -0.500000 -1.562500
v -1.187500 -0.468750 -1.437500
v -0.875000 -0.468750 -1.437500
v -0.875000 -0.500000 -1.562500
v -0.875000 -0.875000 -1.562500
v -0.875000 -0.875000 -1.500000
v -1.187500 -0.875000 -1.500000
v -1.187500 -0.875000 -1.562500
v -1.250000 -0.375000 -1.437500
v -1.250000 0.000000 0.000000
v -0.875000 0.000000 0.000000
v -0.875000 -0.375000 -1.437500
v -0.875000 -0.500000 -1.562500
v -0.875000 -0.125000 -0.000000
v -1.312500 -0.125000 -0.000000
v -1.312500 -0.500000 -1.562500
v -1.312500 -0.500000 -1.562500
v -1.312500 -0.125000 -0.000000
v -1.187500 -0.125000 -0.000000
v -1.187500 -0.500000 -1.562500
v -1.187500 -0.875000 -1.562500
v -1.187500 -0.875000 -0.062500
v -1.312500 -0.875000 -0.062500
v -1.312500 -0.875000 -1.562500
v -0.812500 0.031250 -0.031250
v -0.812500 0.031250 0.031250
v -0.625000 0.031250 0.031250
v -0.625000 0.031250 -0.031250
v -0.625000 -0.031250 -0.031250
v -0.625000 -0.031250 0.031250
v -0.812500 -0.031250 0.031250
v -0.812500 -0.031250 -0.031250
v 0.625000 0.031250 -0.031250
v 0.625000 0.031250 0.031250
v 0.812500 0.031250 0.031250
v 0.812500 0.031250 -0.031250
v 0.812500 -0.031250 -0.031250
v 0.812500 -0.031250 0.031250
v 0.625000 -0.031250 0.031250
v 0.625000 -0.031250 -0.031250
vt 1.748047 0.595703
vt 1.750000 0.595703
vt 1.750000 0.607422
vt 1.748047 0.607422
vt 1.750000 0.595703
vt 1.751953 0.595703
vt 1.751953 0.607422
vt 1.750000 0.607422
vt 1.748047 0.585938
vt 1.750000 0.585938
vt 1.763672 0.595703
vt 1.761719 0.595703
vt 1.761719 0.585938
vt 1.763672 0.585938
vt 1.736328 0.595703
vt 1.736328 0.585938
vt 1.318359 0.494141
vt 1.367188 0.494141
vt 1.367188 0.498047
vt 1.318359 0.498047
vt 1.367188 0.494141
vt 1.416016 0.494141
vt 1.416016 0.498047
vt 1.367188 0.498047
vt 1.318359 0.470703
vt 1.367188 0.470703
vt 1.419922 0.494141
vt 1.371094 0.494141
vt 1.371094 0.470703
vt 1.419922 0.470703
vt 1.314453 0.494141
vt 1.314453 0.470703
vt 1.435547 0.486328
vt 1.484375 0.486328
vt 1.484375 0.498047
vt 1.435547 0.498047
vt 1.484375 0.486328
vt 1.533203 0.486328
vt 1.533203 0.498047
vt 1.484375 0.498047
vt 1.435547 0.482422
vt 1.484375 0.482422
vt 1.544922 0.486328
vt 1.496094 0.486328
vt 1.496094 0.482422
vt 1.544922 0.482422
vt 1.423828 0.486328
vt 1.423828 0.482422
vt 1.058594 0.582031
vt 1.060547 0.582031
vt 1.060547 0.591797
vt 1.058594 0.591797
vt 1.060547 0.582031
vt 1.062500 0.582031
vt 1.062500 0.591797
vt 1.060547 0.591797
vt 1.058594 0.570312
vt 1.060547 0.570312
vt 1.072266 0.582031
vt 1.070312 0.582031
vt 1.070312 0.570312
vt 1.072266 0.570312
vt 1.048828 0.582031
vt 1.048828 0.570312
vt 1.966797 0.580078
vt 1.968750 0.580078
vt 1.968750 0.591797
vt 1.966797 0.591797
vt 1.968750 0.580078
vt 1.970703 0.580078
vt 1.970703 0.591797
vt 1.968750 0.591797
vt 1.966797 0.570312
vt 1.968750 0.570312
vt 1.982422 0.580078
vt 1.980469 0.580078
vt 1.980469 0.570312
vt 1.982422 0.570312
vt 1.955078 0.580078
vt 1.955078 0.570312
vt 1.011719 0.566406
vt 1.013672 0.566406
vt 1.013672 0.576172
vt 1.011719 0.576172
vt 1.013672 0.566406
vt 1.015625 0.566406
vt 1.015625 0.576172
vt 1.013672 0.576172
vt 1.011719 0.554688
vt 1.013672 0.554688
vt 1.025391 0.566406
vt 1.023438 0.566406
vt 1.023438 0.554688
vt 1.025391 0.554688
vt 1.001953 0.566406
vt 1.001953 0.554688
vt 1.623047 0.486328
vt 1.671875 0.486328
vt 1.671875 0.498047
vt 1.623047 0.498047
vt 1.671875 0.486328
vt 1.720703 0.486328
vt 1.720703 0.498047
vt 1.671875 0.498047
vt 1.623047 0.482422
vt 1.671875 0.482422
vt 1.732422 0.486328
vt 1.683594 0.486328
vt 1.683594 0.482422
vt 1.732422 0.482422
vt 1.611328 0.486328
vt 1.611328 0.482422
vt 1.740234 0.494141
vt 1.789062 0.494141
vt 1.789062 0.498047
vt 1.740234 0.498047
vt 1.789062 0.494141
vt 1.837891 0.494141
vt 1.837891 0.498047
vt 1.789062 0.498047
vt 1.740234 0.470703
vt 1.789062 0.470703
vt 1.841797 0.494141
vt 1.792969 0.494141
vt 1.792969 0.470703
vt 1.841797 0.470703
vt 1.736328 0.494141
vt 1.736328 0.470703
vt 1.882812 0.617188
vt 1.884766 0.617188
vt 1.884766 0.623047
vt 1.882812 0.623047
vt 1.884766 0.617188
vt 1.886719 0.617188
vt 1.886719 0.623047
vt 1.884766 0.623047
vt 1.882812 0.615234
vt 1.884766 0.615234
vt 1.892578 0.617188
vt 1.890625 0.617188
vt 1.890625 0.615234
vt 1.892578 0.615234
vt 1.876953 0.617188
vt 1.876953 0.615234
vt 1.429688 0.601562
vt 1.431641 0.601562
vt 1.431641 0.607422
vt 1.429688 0.607422
vt 1.431641 0.601562
vt 1.433594 0.601562
vt 1.433594 0.607422
vt 1.431641 0.607422
vt 1.429688 0.599609
vt 1.431641 0.599609
vt 1.439453 0.601562
vt 1.437500 0.601562
vt 1.437500 0.599609
vt 1.439453 0.599609
vt 1.423828 0.601562
vt 1.423828 0.599609
vn 0.0000 0.7071 -0.7071
vn 0.0000 -1.0000 0.0000
vn -1.0000 0.0000 0.0000
vn 0.7071 0.0000 -0.7071
vn 0.0000 0.0000 1.0000
vn 0.0000 0.0000 -1.0000
vn 0.0000 0.9724 -0.2334
vn 1.0000 -0.0000 0.0000
vn 0.0000 -0.0830 0.9965
vn 0.0000 0.9676 -0.2524
vn 0.0000 -0.9724 0.2334
vn 0.8616 0.4924 -0.1231
vn 0.0000 0.9701 -0.2425
vn 0.0000 -0.1521 0.9884
vn -0.7071 0.0000 -0.7071
vn -0.8616 0.4924 -0.1231
vn 0.0000 1.0000 0.0000
usemtl ModelMaterial.002
s 1
f 77/145/16 78/146/16 79/147/16 80/148/16
f 81/149/17 82/150/17 83/151/17 84/152/17
f 78/146/18 77/145/18 84/153/18 83/154/18
f 80/155/19 79/156/19 82/157/19 81/158/19
f 79/156/20 78/146/20 83/154/20 82/157/20
f 77/145/21 80/159/21 81/160/21 84/153/21
f 85/161/22 86/162/22 87/163/22 88/164/22
f 89/165/17 90/166/17 91/167/17 92/168/17
f 86/162/18 85/161/18 92/169/18 91/170/18
f 88/171/23 87/172/23 90/173/23 89/174/23
f 87/172/24 86/162/24 91/170/24 90/173/24
f 85/161/21 88/175/21 89/176/21 92/169/21
f 93/177/25 94/178/25 95/179/25 96/180/25
f 97/181/26 98/182/26 99/183/26 100/184/26
f 94/178/18 93/177/18 100/185/18 99/186/18
f 96/187/27 95/188/27 98/189/27 97/190/27
f 95/188/20 94/178/20 99/186/20 98/189/20
f 93/177/16 96/191/16 97/192/16 100/185/16
f 101/193/28 102/194/28 103/195/28 104/196/28
f 105/197/17 106/198/17 107/199/17 108/200/17
f 102/194/18 101/193/18 108/201/18 107/202/18
f 104/203/23 103/204/23 106/205/23 105/206/23
f 103/204/29 102/194/29 107/202/29 106/205/29
f 101/193/21 104/207/21 105/208/21 108/201/21
f 109/209/16 110/210/16 111/211/16 112/212/16
f 113/213/17 114/214/17 115/215/17 116/216/17
f 110/210/30 109/209/30 116/217/30 115/218/30
f 112/219/23 111/220/23 114/221/23 113/222/23
f 111/220/20 110/210/20 115/218/20 114/221/20
f 109/209/21 112/223/21 113/224/21 116/217/21
f 117/225/28 118/226/28 119/227/28 120/228/28
f 121/229/17 122/230/17 123/231/17 124/232/17
f 118/226/18 117/225/18 124/233/18 123/234/18
f 120/235/23 119/236/23 122/237/23 121/238/23
f 119/236/29 118/226/29 123/234/29 122/237/29
f 117/225/21 120/239/21 121/240/21 124/233/21
f 125/241/25 126/242/25 127/243/25 128/244/25
f 129/245/26 130/246/26 131/247/26 132/248/26
f 126/242/31 125/241/31 132/249/31 131/250/31
f 128/251/23 127/252/23 130/253/23 129/254/23
f 127/252/20 126/242/20 131/250/20 130/253/20
f 125/241/16 128/255/16 129/256/16 132/249/16
f 133/257/22 134/258/22 135/259/22 136/260/22
f 137/261/17 138/262/17 139/263/17 140/264/17
f 134/258/18 133/257/18 140/265/18 139/266/18
f 136/267/23 135/268/23 138/269/23 137/270/23
f 135/268/24 134/258/24 139/266/24 138/269/24
f 133/257/21 136/271/21 137/272/21 140/265/21
f 141/273/32 142/274/32 143/275/32 144/276/32
f 145/277/17 146/278/17 147/279/17 148/280/17
f 142/274/18 141/273/18 148/281/18 147/282/18
f 144/283/23 143/284/23 146/285/23 145/286/23
f 143/284/20 142/274/20 147/282/20 146/285/20
f 141/273/21 144/287/21 145/288/21 148/281/21
f 149/289/32 150/290/32 151/291/32 152/292/32
f 153/293/17 154/294/17 155/295/17 156/296/17
f 150/290/18 149/289/18 156/297/18 155/298/18
f 152/299/23 151/300/23 154/301/23 153/302/23
f 151/300/20 150/290/20 155/298/20 154/301/20
f 149/289/21 152/303/21 153/304/21 156/297/21
o window_door_tailgate
v -0.625000 -0.625000 -1.593750
v 0.625000 -0.625000 -1.593750
v 0.625000 -0.812500 -1.593750
v -0.625000 -0.812500 -1.593750
v -0.625000 -0.358878 -1.262869
v -0.625000 -0.186742 -0.597268
v 0.625000 -0.186742 -0.597268
v 0.625000 -0.358878 -1.262869
vt 1.431641 0.521484
vt 1.392578 0.521484
vt 1.392578 0.515625
vt 1.431641 0.515625
vt 1.556641 0.474609
vt 1.578125 0.474609
vt 1.578125 0.513672
vt 1.556641 0.513672
vn 0.0000 0.0000 -1.0000
vn 0.0000 0.9681 -0.2504
usemtl ModelMaterial.002
s 1
f 157/305/33 158/306/33 159/307/33 160/308/33
f 161/309/34 162/310/34 163/311/34 164/312/34
